# Blender v2.62 (sub 0) OBJ File: 'earth.blend'
# www.blender.org
mtllib earth.mtl
o Sphere
v 0.299749 0.944379 -0.000000
v 0.570157 0.804067 -0.000000
v 0.784754 0.584189 -0.000000
v 0.922534 0.307126 -0.000000
v 0.970009 -0.000000 -0.000000
v 0.922534 -0.307126 -0.000000
v 0.784754 -0.584189 -0.000000
v 0.570157 -0.804068 -0.000000
v 0.299749 -0.945112 -0.000000
v 0.242502 -0.945112 -0.176188
v 0.461267 -0.804068 -0.335130
v 0.634879 -0.584189 -0.461267
v 0.746345 -0.307127 -0.542252
v 0.784754 -0.000000 -0.570157
v 0.746345 0.307126 -0.542252
v 0.634879 0.584189 -0.461267
v 0.461267 0.804067 -0.335130
v 0.242502 0.944379 -0.176188
v 0.092628 0.944379 -0.285079
v 0.176188 0.804067 -0.542252
v 0.242502 0.584189 -0.746345
v 0.285079 0.307126 -0.877382
v 0.299749 -0.000000 -0.922534
v 0.285079 -0.307127 -0.877382
v 0.242502 -0.584189 -0.746345
v 0.176188 -0.804068 -0.542252
v 0.092628 -0.945112 -0.285078
v -0.092628 -0.945112 -0.285078
v -0.176188 -0.804068 -0.542252
v -0.242502 -0.584189 -0.746345
v -0.285079 -0.307127 -0.877382
v -0.299749 -0.000000 -0.922534
v -0.285079 0.307126 -0.877382
v -0.242502 0.584189 -0.746345
v -0.176188 0.804067 -0.542252
v -0.092628 0.944379 -0.285079
v -0.242502 0.944379 -0.176188
v -0.461267 0.804067 -0.335130
v -0.634879 0.584189 -0.461267
v -0.746346 0.307126 -0.542252
v -0.784754 -0.000000 -0.570157
v -0.746345 -0.307127 -0.542252
v -0.634879 -0.584189 -0.461267
v -0.461267 -0.804068 -0.335130
v -0.242502 -0.945112 -0.176188
v -0.299749 -0.945112 0.000000
v -0.570157 -0.804068 0.000000
v -0.784754 -0.584189 0.000000
v -0.922534 -0.307127 0.000000
v -0.970009 -0.000000 0.000000
v -0.922534 0.307126 0.000000
v -0.784754 0.584189 0.000000
v -0.570157 0.804067 0.000000
v -0.299749 0.944379 0.000000
v -0.242502 0.944379 0.176188
v -0.461267 0.804067 0.335130
v -0.634879 0.584189 0.461267
v -0.746345 0.307126 0.542252
v -0.784754 -0.000000 0.570157
v -0.746345 -0.307127 0.542252
v -0.634879 -0.584189 0.461267
v -0.461267 -0.804068 0.335130
v -0.242502 -0.945112 0.176188
v -0.092628 -0.945112 0.285078
v -0.176188 -0.804068 0.542252
v -0.242502 -0.584189 0.746346
v -0.285078 -0.307127 0.877382
v -0.299749 -0.000000 0.922534
v -0.285078 0.307126 0.877382
v -0.242502 0.584189 0.746346
v -0.176188 0.804067 0.542252
v -0.092628 0.944379 0.285079
v 0.092628 0.944379 0.285079
v 0.176188 0.804067 0.542252
v 0.242503 0.584189 0.746346
v 0.285079 0.307126 0.877382
v 0.299750 -0.000000 0.922534
v 0.285079 -0.307127 0.877382
v 0.242503 -0.584189 0.746346
v 0.176188 -0.804068 0.542252
v 0.092628 -0.945112 0.285078
v 0.242502 -0.945112 0.176188
v 0.461267 -0.804068 0.335130
v 0.634880 -0.584189 0.461267
v 0.746346 -0.307127 0.542252
v 0.784754 -0.000000 0.570157
v 0.746346 0.307126 0.542252
v 0.634880 0.584189 0.461267
v 0.461267 0.804067 0.335130
v 0.242502 0.944379 0.176188
v 0.025751 0.983323 0.000000
v 0.020833 0.983323 0.015136
v 0.025751 -0.994078 0.000000
v 0.020833 -0.994078 0.015136
v 0.007958 0.983323 0.024491
v 0.007958 -0.994078 0.024491
v -0.007958 -0.994078 0.024491
v -0.007958 0.983323 0.024491
v -0.020833 0.983323 0.015136
v -0.020833 -0.994078 0.015136
v -0.025751 -0.994078 0.000000
v -0.025751 0.983323 0.000000
v -0.020833 0.983323 -0.015136
v -0.020833 -0.994078 -0.015136
v -0.007958 -0.994078 -0.024491
v -0.007958 0.983323 -0.024491
v 0.007958 0.983323 -0.024491
v 0.007958 -0.994078 -0.024491
v 0.020833 -0.994078 -0.015136
v 0.020833 0.983323 -0.015136
vt 0.098376 0.162246
vt 0.098376 0.050315
vt 0.197897 0.050315
vt 0.197897 0.162246
vt 0.098376 0.274178
vt 0.197897 0.274178
vt 0.098376 0.386109
vt 0.197897 0.386109
vt 0.098376 0.498041
vt 0.197897 0.498041
vt 0.098376 0.609972
vt 0.197897 0.609972
vt 0.098376 0.721904
vt 0.197897 0.721904
vt 0.098376 0.833835
vt 0.197897 0.833835
vt 0.098376 0.945767
vt 0.197897 0.945767
vt 0.297419 0.833835
vt 0.297419 0.945767
vt 0.297419 0.721904
vt 0.297419 0.609972
vt 0.297419 0.498041
vt 0.297419 0.386109
vt 0.297419 0.274178
vt 0.297419 0.162246
vt 0.297419 0.050315
vt 0.396941 0.050315
vt 0.396941 0.162246
vt 0.396941 0.274178
vt 0.396941 0.386109
vt 0.396941 0.498041
vt 0.396941 0.609972
vt 0.396941 0.721904
vt 0.396941 0.833835
vt 0.396941 0.945767
vt 0.496462 0.833835
vt 0.496462 0.945767
vt 0.496462 0.721904
vt 0.496462 0.609972
vt 0.496462 0.498041
vt 0.496462 0.386109
vt 0.496462 0.274178
vt 0.496462 0.162246
vt 0.496462 0.050315
vt 0.595984 0.050315
vt 0.595984 0.162246
vt 0.595984 0.274178
vt 0.595984 0.386109
vt 0.595984 0.498041
vt 0.595984 0.609972
vt 0.595984 0.721904
vt 0.595984 0.833835
vt 0.595984 0.945767
vt 0.695505 0.833835
vt 0.695505 0.945767
vt 0.695505 0.721904
vt 0.695505 0.609972
vt 0.695505 0.498041
vt 0.695505 0.386109
vt 0.695505 0.274178
vt 0.695505 0.162246
vt 0.695505 0.050315
vt 0.795027 0.050315
vt 0.795027 0.162246
vt 0.795027 0.274178
vt 0.795027 0.386109
vt 0.795027 0.498041
vt 0.795027 0.609972
vt 0.795027 0.721904
vt 0.795027 0.833835
vt 0.795027 0.945767
vt 0.894549 0.833835
vt 0.894549 0.945767
vt 0.894549 0.721904
vt 0.894549 0.609972
vt 0.894549 0.498041
vt 0.894549 0.386109
vt 0.894549 0.274178
vt 0.894549 0.162246
vt 0.894549 0.050315
vt 0.994070 0.050315
vt 0.994070 0.162246
vt 0.994070 0.274178
vt 0.994070 0.386109
vt 0.994070 0.498041
vt 0.994070 0.609972
vt 0.994070 0.721904
vt 0.994070 0.833835
vt 0.994070 0.945767
vt -0.001146 0.945767
vt -0.001146 0.833835
vt -0.001146 0.721904
vt -0.001146 0.609972
vt -0.001146 0.498041
vt -0.001146 0.386109
vt -0.001146 0.274178
vt -0.001146 0.162246
vt -0.001146 0.050315
vt 0.098376 0.996130
vt -0.001146 0.996130
vt -0.001146 -0.000049
vt 0.098376 -0.000049
vt 0.994070 0.996130
vt 0.894549 0.996130
vt 0.894549 -0.000049
vt 0.994070 -0.000049
vt 0.795027 -0.000049
vt 0.795027 0.996130
vt 0.695505 0.996130
vt 0.695505 -0.000049
vt 0.595984 -0.000049
vt 0.595984 0.996130
vt 0.496462 0.996130
vt 0.496462 -0.000049
vt 0.396941 -0.000049
vt 0.396941 0.996130
vt 0.297419 0.996130
vt 0.297419 -0.000049
vt 0.197897 -0.000049
vt 0.197897 0.996130
vn 0.615986 -0.787744 0.000000
vn 0.349437 -0.936949 0.000000
vn 0.282693 -0.936949 -0.205390
vn 0.498337 -0.787744 -0.362041
vn 0.825190 -0.564806 0.000000
vn 0.667592 -0.564806 -0.485031
vn 0.955718 -0.294198 0.000000
vn 0.773186 -0.294198 -0.561754
vn 1.000000 0.000000 0.000000
vn 0.809015 0.000000 -0.587756
vn 0.955718 0.294198 0.000000
vn 0.773186 0.294198 -0.561754
vn 0.825190 0.564806 0.000000
vn 0.667592 0.564806 -0.485031
vn 0.615284 0.788293 0.000000
vn 0.497757 0.788293 -0.361644
vn 0.334727 0.942289 0.000000
vn 0.270821 0.942289 -0.196753
vn 0.190130 0.788293 -0.585162
vn 0.103427 0.942289 -0.318369
vn 0.254982 0.564806 -0.784814
vn 0.295328 0.294198 -0.908933
vn 0.309000 0.000000 -0.951048
vn 0.295328 -0.294198 -0.908933
vn 0.254982 -0.564806 -0.784814
vn 0.190344 -0.787744 -0.585833
vn 0.107974 -0.936949 -0.332347
vn -0.107974 -0.936949 -0.332347
vn -0.190344 -0.787744 -0.585833
vn -0.254982 -0.564806 -0.784814
vn -0.295328 -0.294198 -0.908933
vn -0.309000 0.000000 -0.951048
vn -0.295328 0.294198 -0.908933
vn -0.254982 0.564806 -0.784814
vn -0.190130 0.788293 -0.585162
vn -0.103427 0.942289 -0.318369
vn -0.497757 0.788293 -0.361644
vn -0.270821 0.942289 -0.196753
vn -0.667592 0.564806 -0.485031
vn -0.773186 0.294198 -0.561754
vn -0.809015 0.000000 -0.587756
vn -0.773186 -0.294198 -0.561754
vn -0.667592 -0.564806 -0.485031
vn -0.498337 -0.787744 -0.362041
vn -0.282693 -0.936949 -0.205390
vn -0.349437 -0.936949 0.000000
vn -0.615986 -0.787744 0.000000
vn -0.825190 -0.564806 0.000000
vn -0.955718 -0.294198 0.000000
vn -1.000000 0.000000 0.000000
vn -0.955718 0.294198 0.000000
vn -0.825190 0.564806 0.000000
vn -0.615284 0.788293 0.000000
vn -0.334727 0.942289 0.000000
vn -0.497757 0.788293 0.361644
vn -0.270821 0.942289 0.196753
vn -0.667592 0.564806 0.485031
vn -0.773186 0.294198 0.561754
vn -0.809015 0.000000 0.587756
vn -0.773186 -0.294198 0.561754
vn -0.667592 -0.564806 0.485031
vn -0.498337 -0.787744 0.362041
vn -0.282693 -0.936949 0.205390
vn -0.107974 -0.936949 0.332347
vn -0.190344 -0.787744 0.585833
vn -0.254982 -0.564806 0.784814
vn -0.295328 -0.294198 0.908933
vn -0.309000 0.000000 0.951048
vn -0.295328 0.294198 0.908933
vn -0.254982 0.564806 0.784814
vn -0.190130 0.788293 0.585162
vn -0.103427 0.942289 0.318369
vn 0.190130 0.788293 0.585162
vn 0.103427 0.942289 0.318369
vn 0.254982 0.564806 0.784814
vn 0.295328 0.294198 0.908933
vn 0.309000 0.000000 0.951048
vn 0.295328 -0.294198 0.908933
vn 0.254982 -0.564806 0.784814
vn 0.190344 -0.787744 0.585833
vn 0.107974 -0.936949 0.332347
vn 0.282693 -0.936949 0.205390
vn 0.498337 -0.787744 0.362041
vn 0.667592 -0.564806 0.485031
vn 0.773186 -0.294198 0.561754
vn 0.809015 0.000000 0.587756
vn 0.773186 0.294198 0.561754
vn 0.667592 0.564806 0.485031
vn 0.497757 0.788293 0.361644
vn 0.270821 0.942289 0.196753
vn 0.140690 0.990020 0.000000
vn 0.113834 0.990020 0.082705
vn 0.142308 -0.984375 0.103397
vn 0.175909 -0.984375 0.000000
vn 0.043458 0.990020 0.133824
vn 0.054353 -0.984375 0.167302
vn -0.054353 -0.984375 0.167302
vn -0.043458 0.990020 0.133824
vn -0.113834 0.990020 0.082705
vn -0.142308 -0.984375 0.103397
vn -0.175909 -0.984375 0.000000
vn -0.140690 0.990020 0.000000
vn -0.113834 0.990020 -0.082705
vn -0.142308 -0.984375 -0.103397
vn -0.054353 -0.984375 -0.167302
vn -0.043458 0.990020 -0.133824
vn 0.043458 0.990020 -0.133824
vn 0.054353 -0.984375 -0.167302
vn 0.142308 -0.984375 -0.103397
vn 0.113834 0.990020 -0.082705
usemtl _earth_physical.bmp
s 1
f 8/1/1 9/2/2 10/3/3
f 8/1/1 10/3/3 11/4/4
f 7/5/5 8/1/1 11/4/4
f 7/5/5 11/4/4 12/6/6
f 6/7/7 7/5/5 12/6/6
f 6/7/7 12/6/6 13/8/8
f 5/9/9 6/7/7 13/8/8
f 5/9/9 13/8/8 14/10/10
f 4/11/11 5/9/9 14/10/10
f 4/11/11 14/10/10 15/12/12
f 3/13/13 4/11/11 15/12/12
f 3/13/13 15/12/12 16/14/14
f 2/15/15 3/13/13 16/14/14
f 2/15/15 16/14/14 17/16/16
f 1/17/17 2/15/15 17/16/16
f 1/17/17 17/16/16 18/18/18
f 18/18/18 17/16/16 20/19/19
f 18/18/18 20/19/19 19/20/20
f 17/16/16 16/14/14 21/21/21
f 17/16/16 21/21/21 20/19/19
f 16/14/14 15/12/12 22/22/22
f 16/14/14 22/22/22 21/21/21
f 15/12/12 14/10/10 23/23/23
f 15/12/12 23/23/23 22/22/22
f 14/10/10 13/8/8 24/24/24
f 14/10/10 24/24/24 23/23/23
f 13/8/8 12/6/6 25/25/25
f 13/8/8 25/25/25 24/24/24
f 12/6/6 11/4/4 26/26/26
f 12/6/6 26/26/26 25/25/25
f 11/4/4 10/3/3 27/27/27
f 11/4/4 27/27/27 26/26/26
f 26/26/26 27/27/27 28/28/28
f 26/26/26 28/28/28 29/29/29
f 25/25/25 26/26/26 29/29/29
f 25/25/25 29/29/29 30/30/30
f 24/24/24 25/25/25 30/30/30
f 24/24/24 30/30/30 31/31/31
f 23/23/23 24/24/24 31/31/31
f 23/23/23 31/31/31 32/32/32
f 22/22/22 23/23/23 32/32/32
f 22/22/22 32/32/32 33/33/33
f 21/21/21 22/22/22 33/33/33
f 21/21/21 33/33/33 34/34/34
f 20/19/19 21/21/21 34/34/34
f 20/19/19 34/34/34 35/35/35
f 19/20/20 20/19/19 35/35/35
f 19/20/20 35/35/35 36/36/36
f 36/36/36 35/35/35 38/37/37
f 36/36/36 38/37/37 37/38/38
f 35/35/35 34/34/34 39/39/39
f 35/35/35 39/39/39 38/37/37
f 34/34/34 33/33/33 40/40/40
f 34/34/34 40/40/40 39/39/39
f 33/33/33 32/32/32 41/41/41
f 33/33/33 41/41/41 40/40/40
f 32/32/32 31/31/31 42/42/42
f 32/32/32 42/42/42 41/41/41
f 31/31/31 30/30/30 43/43/43
f 31/31/31 43/43/43 42/42/42
f 30/30/30 29/29/29 44/44/44
f 30/30/30 44/44/44 43/43/43
f 29/29/29 28/28/28 45/45/45
f 29/29/29 45/45/45 44/44/44
f 44/44/44 45/45/45 46/46/46
f 44/44/44 46/46/46 47/47/47
f 43/43/43 44/44/44 47/47/47
f 43/43/43 47/47/47 48/48/48
f 42/42/42 43/43/43 48/48/48
f 42/42/42 48/48/48 49/49/49
f 41/41/41 42/42/42 49/49/49
f 41/41/41 49/49/49 50/50/50
f 40/40/40 41/41/41 50/50/50
f 40/40/40 50/50/50 51/51/51
f 39/39/39 40/40/40 51/51/51
f 39/39/39 51/51/51 52/52/52
f 38/37/37 39/39/39 52/52/52
f 38/37/37 52/52/52 53/53/53
f 37/38/38 38/37/37 53/53/53
f 37/38/38 53/53/53 54/54/54
f 54/54/54 53/53/53 56/55/55
f 54/54/54 56/55/55 55/56/56
f 53/53/53 52/52/52 57/57/57
f 53/53/53 57/57/57 56/55/55
f 52/52/52 51/51/51 58/58/58
f 52/52/52 58/58/58 57/57/57
f 51/51/51 50/50/50 59/59/59
f 51/51/51 59/59/59 58/58/58
f 50/50/50 49/49/49 60/60/60
f 50/50/50 60/60/60 59/59/59
f 49/49/49 48/48/48 61/61/61
f 49/49/49 61/61/61 60/60/60
f 48/48/48 47/47/47 62/62/62
f 48/48/48 62/62/62 61/61/61
f 47/47/47 46/46/46 63/63/63
f 47/47/47 63/63/63 62/62/62
f 62/62/62 63/63/63 64/64/64
f 62/62/62 64/64/64 65/65/65
f 61/61/61 62/62/62 65/65/65
f 61/61/61 65/65/65 66/66/66
f 60/60/60 61/61/61 66/66/66
f 60/60/60 66/66/66 67/67/67
f 59/59/59 60/60/60 67/67/67
f 59/59/59 67/67/67 68/68/68
f 58/58/58 59/59/59 68/68/68
f 58/58/58 68/68/68 69/69/69
f 57/57/57 58/58/58 69/69/69
f 57/57/57 69/69/69 70/70/70
f 56/55/55 57/57/57 70/70/70
f 56/55/55 70/70/70 71/71/71
f 55/56/56 56/55/55 71/71/71
f 55/56/56 71/71/71 72/72/72
f 72/72/72 71/71/71 74/73/73
f 72/72/72 74/73/73 73/74/74
f 71/71/71 70/70/70 75/75/75
f 71/71/71 75/75/75 74/73/73
f 70/70/70 69/69/69 76/76/76
f 70/70/70 76/76/76 75/75/75
f 69/69/69 68/68/68 77/77/77
f 69/69/69 77/77/77 76/76/76
f 68/68/68 67/67/67 78/78/78
f 68/68/68 78/78/78 77/77/77
f 67/67/67 66/66/66 79/79/79
f 67/67/67 79/79/79 78/78/78
f 66/66/66 65/65/65 80/80/80
f 66/66/66 80/80/80 79/79/79
f 65/65/65 64/64/64 81/81/81
f 65/65/65 81/81/81 80/80/80
f 80/80/80 81/81/81 82/82/82
f 80/80/80 82/82/82 83/83/83
f 79/79/79 80/80/80 83/83/83
f 79/79/79 83/83/83 84/84/84
f 78/78/78 79/79/79 84/84/84
f 78/78/78 84/84/84 85/85/85
f 77/77/77 78/78/78 85/85/85
f 77/77/77 85/85/85 86/86/86
f 76/76/76 77/77/77 86/86/86
f 76/76/76 86/86/86 87/87/87
f 75/75/75 76/76/76 87/87/87
f 75/75/75 87/87/87 88/88/88
f 74/73/73 75/75/75 88/88/88
f 74/73/73 88/88/88 89/89/89
f 73/74/74 74/73/73 89/89/89
f 73/74/74 89/89/89 90/90/90
f 2/15/15 1/17/17 90/91/90
f 2/15/15 90/91/90 89/92/89
f 89/92/89 88/93/88 3/13/13
f 89/92/89 3/13/13 2/15/15
f 88/93/88 87/94/87 4/11/11
f 88/93/88 4/11/11 3/13/13
f 87/94/87 86/95/86 5/9/9
f 87/94/87 5/9/9 4/11/11
f 86/95/86 85/96/85 6/7/7
f 86/95/86 6/7/7 5/9/9
f 85/96/85 84/97/84 7/5/5
f 85/96/85 7/5/5 6/7/7
f 84/97/84 83/98/83 8/1/1
f 84/97/84 8/1/1 7/5/5
f 83/98/83 82/99/82 9/2/2
f 83/98/83 9/2/2 8/1/1
f 90/91/90 1/17/17 91/100/91
f 90/91/90 91/100/91 92/101/92
f 9/2/2 82/99/82 94/102/93
f 9/2/2 94/102/93 93/103/94
f 73/74/74 90/90/90 92/104/92
f 73/74/74 92/104/92 95/105/95
f 82/82/82 81/81/81 96/106/96
f 82/82/82 96/106/96 94/107/93
f 81/81/81 64/64/64 97/108/97
f 81/81/81 97/108/97 96/106/96
f 72/72/72 73/74/74 95/105/95
f 72/72/72 95/105/95 98/109/98
f 55/56/56 72/72/72 98/109/98
f 55/56/56 98/109/98 99/110/99
f 64/64/64 63/63/63 100/111/100
f 64/64/64 100/111/100 97/108/97
f 63/63/63 46/46/46 101/112/101
f 63/63/63 101/112/101 100/111/100
f 54/54/54 55/56/56 99/110/99
f 54/54/54 99/110/99 102/113/102
f 37/38/38 54/54/54 102/113/102
f 37/38/38 102/113/102 103/114/103
f 46/46/46 45/45/45 104/115/104
f 46/46/46 104/115/104 101/112/101
f 45/45/45 28/28/28 105/116/105
f 45/45/45 105/116/105 104/115/104
f 36/36/36 37/38/38 103/114/103
f 36/36/36 103/114/103 106/117/106
f 19/20/20 36/36/36 106/117/106
f 19/20/20 106/117/106 107/118/107
f 28/28/28 27/27/27 108/119/108
f 28/28/28 108/119/108 105/116/105
f 27/27/27 10/3/3 109/120/109
f 27/27/27 109/120/109 108/119/108
f 18/18/18 19/20/20 107/118/107
f 18/18/18 107/118/107 110/121/110
f 1/17/17 18/18/18 110/121/110
f 1/17/17 110/121/110 91/100/91
f 10/3/3 9/2/2 93/103/94
f 10/3/3 93/103/94 109/120/109
