# Blender v2.62 (sub 0) OBJ File: 'tictactoe.blend'
# www.blender.org
mtllib sharp.mtl
o Cube.001
v 0.943617 0.053324 -2.882202
v 1.049265 0.053324 -2.882202
v 1.049265 0.053324 2.884357
v 0.943617 0.053324 2.884356
v 0.943617 -0.052323 -2.882204
v 1.049265 -0.052323 -2.882200
v 1.049265 -0.052323 2.884358
v 0.943617 -0.052323 2.884357
v -1.053305 0.053324 -2.882202
v -0.947658 0.053324 -2.882202
v -0.947657 0.053324 2.884358
v -1.053305 0.053324 2.884356
v -1.053305 -0.052323 -2.882204
v -0.947658 -0.052323 -2.882200
v -0.947657 -0.052323 2.884358
v -1.053305 -0.052323 2.884357
v -2.885300 0.053324 1.052362
v -2.885300 0.053324 0.946715
v 2.881260 0.053324 0.946715
v 2.881258 0.053324 1.052362
v -2.885301 -0.052323 1.052362
v -2.885298 -0.052323 0.946715
v 2.881261 -0.052323 0.946715
v 2.881259 -0.052323 1.052362
v -2.885300 0.053324 -0.944560
v -2.885300 0.053324 -1.050207
v 2.881260 0.053324 -1.050207
v 2.881258 0.053324 -0.944560
v -2.885301 -0.052323 -0.944560
v -2.885298 -0.052323 -1.050207
v 2.881261 -0.052323 -1.050207
v 2.881259 -0.052323 -0.944560
vt 0.155515 0.360632
vt 0.111608 0.360632
vt 0.111608 0.404539
vt 0.155515 0.404539
vt 0.199688 0.404804
vt 0.155781 0.404804
vt 0.155781 0.448711
vt 0.199688 0.448711
vt 0.177594 0.397360
vt 0.177594 0.382089
vt 0.173987 0.382089
vt 0.173987 0.397360
vt 0.123165 0.350986
vt 0.107894 0.350986
vt 0.107894 0.475116
vt 0.123165 0.475116
vt 0.173706 0.397360
vt 0.173706 0.382089
vt 0.170099 0.382089
vt 0.170099 0.397360
vt 0.247575 0.490668
vt 0.247575 0.475397
vt 0.123445 0.475397
vt 0.123445 0.490668
vt 0.155515 0.404804
vt 0.111608 0.404804
vt 0.111608 0.448711
vt 0.155515 0.448711
vt 0.199688 0.360632
vt 0.155781 0.360632
vt 0.155781 0.404539
vt 0.199688 0.404539
vt 0.185370 0.397360
vt 0.185370 0.382089
vt 0.181762 0.382089
vt 0.181762 0.397360
vt 0.138716 0.350986
vt 0.123445 0.350986
vt 0.123445 0.475116
vt 0.138716 0.475116
vt 0.181482 0.397360
vt 0.181482 0.382089
vt 0.177875 0.382089
vt 0.177875 0.397360
vt 0.247575 0.506219
vt 0.247575 0.490948
vt 0.123445 0.490948
vt 0.123445 0.506219
vt 0.243861 0.448977
vt 0.199953 0.448977
vt 0.199953 0.492884
vt 0.243861 0.492884
vt 0.199688 0.448977
vt 0.155781 0.448977
vt 0.155781 0.492884
vt 0.199688 0.492884
vt 0.169819 0.397640
vt 0.154547 0.397640
vt 0.154547 0.412911
vt 0.169819 0.412911
vt 0.154267 0.397640
vt 0.138996 0.397640
vt 0.138996 0.412911
vt 0.154267 0.412911
vt 0.169819 0.382089
vt 0.154547 0.382089
vt 0.154547 0.397360
vt 0.169819 0.397360
vt 0.154267 0.382089
vt 0.138996 0.382089
vt 0.138996 0.397360
vt 0.154267 0.397360
vt 0.243861 0.404804
vt 0.199953 0.404804
vt 0.199953 0.448711
vt 0.243861 0.448711
vt 0.155515 0.448977
vt 0.111608 0.448977
vt 0.111608 0.492884
vt 0.155515 0.492884
vt 0.169819 0.366537
vt 0.154547 0.366537
vt 0.154547 0.381808
vt 0.169819 0.381808
vt 0.154267 0.366537
vt 0.138996 0.366537
vt 0.138996 0.381808
vt 0.154267 0.381808
vt 0.169819 0.350986
vt 0.154547 0.350986
vt 0.154547 0.366257
vt 0.169819 0.366257
vt 0.154267 0.350986
vt 0.138996 0.350986
vt 0.138996 0.366257
vt 0.154267 0.366257
vn 0.000000 -1.000000 -0.000000
vn 0.000000 1.000000 0.000000
vn -0.000016 -0.000000 1.000000
vn -1.000000 0.000000 0.000000
vn 0.000012 -0.000008 -1.000000
vn 1.000000 0.000000 -0.000000
vn -0.000017 0.000001 1.000000
vn 0.000012 -0.000006 -1.000000
vn 1.000000 0.000001 -0.000000
vn 1.000000 0.000002 0.000016
vn -0.000000 -0.000000 1.000000
vn -1.000000 -0.000008 -0.000012
vn -0.000000 0.000000 -1.000000
usemtl _oxo_texture.png
s off
f 1/1/1 2/2/1 3/3/1
f 1/1/1 3/3/1 4/4/1
f 5/5/2 8/6/2 7/7/2
f 5/5/2 7/7/2 6/8/2
f 1/9/3 5/10/3 6/11/3
f 1/9/3 6/11/3 2/12/3
f 2/13/4 6/14/4 7/15/4
f 2/13/4 7/15/4 3/16/4
f 3/17/5 7/18/5 8/19/5
f 3/17/5 8/19/5 4/20/5
f 5/21/6 1/22/6 4/23/6
f 5/21/6 4/23/6 8/24/6
f 9/25/1 10/26/1 11/27/1
f 9/25/1 11/27/1 12/28/1
f 13/29/2 16/30/2 15/31/2
f 13/29/2 15/31/2 14/32/2
f 9/33/7 13/34/7 14/35/7
f 9/33/7 14/35/7 10/36/7
f 10/37/4 14/38/4 15/39/4
f 10/37/4 15/39/4 11/40/4
f 11/41/8 15/42/8 16/43/8
f 11/41/8 16/43/8 12/44/8
f 13/45/9 9/46/9 12/47/9
f 13/45/9 12/47/9 16/48/9
f 17/49/1 18/50/1 19/51/1
f 17/49/1 19/51/1 20/52/1
f 21/53/2 24/54/2 23/55/2
f 21/53/2 23/55/2 22/56/2
f 17/57/10 21/58/10 22/59/10
f 17/57/10 22/59/10 18/60/10
f 18/61/11 22/62/11 23/63/11
f 18/61/11 23/63/11 19/64/11
f 19/65/12 23/66/12 24/67/12
f 19/65/12 24/67/12 20/68/12
f 21/69/13 17/70/13 20/71/13
f 21/69/13 20/71/13 24/72/13
f 25/73/1 26/74/1 27/75/1
f 25/73/1 27/75/1 28/76/1
f 29/77/2 32/78/2 31/79/2
f 29/77/2 31/79/2 30/80/2
f 25/81/10 29/82/10 30/83/10
f 25/81/10 30/83/10 26/84/10
f 26/85/11 30/86/11 31/87/11
f 26/85/11 31/87/11 27/88/11
f 27/89/12 31/90/12 32/91/12
f 27/89/12 32/91/12 28/92/12
f 29/93/13 25/94/13 28/95/13
f 29/93/13 28/95/13 32/96/13
